# MagicaVoxel @ Ephtracy

# group
o 

# material
mtllib Tile_001.mtl
usemtl palette

# normals
vn -1 0 0
vn 1 0 0
vn 0 0 1
vn 0 0 -1
vn 0 -1 0
vn 0 1 0

# texcoords
vt 0.0683594 0.5
vt 0.232422 0.5
vt 0.880859 0.5
vt 0.884766 0.5
vt 0.888672 0.5
vt 0.896484 0.5

# verts
v -0.5 0 0.5
v -0.5 0 -0.5
v -0.5 0.1 0.5
v -0.5 0.1 0.2
v -0.5 0.1 0.1
v -0.5 0.1 -0.5
v -0.5 0.2 0.2
v -0.5 0.2 0.1
v -0.5 0.2 -0.2
v -0.5 0.2 -0.3
v -0.5 0.3 0.4
v -0.5 0.3 0.3
v -0.5 0.3 0.1
v -0.5 0.3 0
v -0.5 0.3 -0.2
v -0.5 0.3 -0.3
v -0.5 0.4 0.4
v -0.5 0.4 0.3
v -0.5 0.4 0.1
v -0.5 0.4 0
v -0.5 0.5 -0.3
v -0.5 0.5 -0.5
v -0.5 0.6 0.3
v -0.5 0.6 0.2
v -0.5 0.6 0
v -0.5 0.6 -0.1
v -0.5 0.6 -0.3
v -0.5 0.6 -0.5
v -0.5 0.7 0.5
v -0.5 0.7 0.4
v -0.5 0.7 0.3
v -0.5 0.7 0.2
v -0.5 0.7 0
v -0.5 0.7 -0.1
v -0.5 0.7 -0.3
v -0.5 0.7 -0.5
v -0.5 0.8 0.5
v -0.5 0.8 0.4
v -0.5 0.8 0.2
v -0.5 0.8 0.1
v -0.5 0.8 -0.1
v -0.5 0.8 -0.2
v -0.5 0.8 -0.3
v -0.5 0.8 -0.4
v -0.5 0.9 0.2
v -0.5 0.9 0.1
v -0.5 0.9 0
v -0.5 0.9 -0.1
v -0.5 0.9 -0.2
v -0.5 0.9 -0.3
v -0.5 0.9 -0.4
v -0.5 1 0.5
v -0.5 1 0.1
v -0.5 1 0
v -0.5 1 -0.5
v 0.5 0 0.5
v 0.5 0 -0.5
v 0.5 0.1 0.5
v 0.5 0.1 -0.5
v 0.5 0.2 0
v 0.5 0.2 -0.1
v 0.5 0.3 0.4
v 0.5 0.3 0.3
v 0.5 0.3 0
v 0.5 0.3 -0.1
v 0.5 0.3 -0.4
v 0.5 0.3 -0.5
v 0.5 0.4 0.5
v 0.5 0.4 0.4
v 0.5 0.4 0.3
v 0.5 0.4 0.2
v 0.5 0.4 0.1
v 0.5 0.4 -0.4
v 0.5 0.4 -0.5
v 0.5 0.5 0.5
v 0.5 0.5 0.4
v 0.5 0.5 0.3
v 0.5 0.5 0.2
v 0.5 0.5 0.1
v 0.5 0.5 0
v 0.5 0.5 -0.1
v 0.5 0.6 -0.1
v 0.5 0.6 -0.2
v 0.5 0.6 -0.3
v 0.5 0.6 -0.4
v 0.5 0.7 0.5
v 0.5 0.7 0.3
v 0.5 0.7 0.2
v 0.5 0.7 0.1
v 0.5 0.7 0
v 0.5 0.7 -0.1
v 0.5 0.7 -0.2
v 0.5 0.7 -0.3
v 0.5 0.7 -0.4
v 0.5 0.7 -0.5
v 0.5 0.8 0.4
v 0.5 0.8 0.3
v 0.5 0.8 0.2
v 0.5 0.8 0.1
v 0.5 0.8 -0.1
v 0.5 0.8 -0.2
v 0.5 0.9 0.4
v 0.5 0.9 0.3
v 0.5 1 0.5
v 0.5 1 -0.5
v -0.5 0 0.5
v -0.5 0.1 0.5
v -0.5 0.7 0.5
v -0.5 0.8 0.5
v -0.5 1 0.5
v -0.4 0.2 0.5
v -0.4 0.3 0.5
v -0.4 0.5 0.5
v -0.4 0.7 0.5
v -0.4 0.8 0.5
v -0.3 0.2 0.5
v -0.3 0.3 0.5
v -0.3 0.5 0.5
v -0.3 0.7 0.5
v -0.3 0.9 0.5
v -0.3 1 0.5
v -0.2 0.4 0.5
v -0.2 0.5 0.5
v -0.2 0.6 0.5
v -0.2 0.7 0.5
v -0.2 0.9 0.5
v -0.2 1 0.5
v -0.1 0.2 0.5
v -0.1 0.3 0.5
v -0.1 0.4 0.5
v -0.1 0.5 0.5
v -0.1 0.6 0.5
v -0.1 0.7 0.5
v -0.1 0.8 0.5
v 0 0.2 0.5
v 0 0.3 0.5
v 0 0.7 0.5
v 0 0.8 0.5
v 0 0.9 0.5
v 0.1 0.8 0.5
v 0.1 0.9 0.5
v 0.2 0.2 0.5
v 0.2 0.3 0.5
v 0.2 0.6 0.5
v 0.2 0.7 0.5
v 0.3 0.5 0.5
v 0.3 0.6 0.5
v 0.3 0.7 0.5
v 0.3 0.9 0.5
v 0.4 0.2 0.5
v 0.4 0.3 0.5
v 0.4 0.4 0.5
v 0.4 0.5 0.5
v 0.4 0.7 0.5
v 0.4 0.9 0.5
v 0.5 0 0.5
v 0.5 0.1 0.5
v 0.5 0.4 0.5
v 0.5 0.5 0.5
v 0.5 0.7 0.5
v 0.5 1 0.5
v -0.5 0 -0.5
v -0.5 0.1 -0.5
v -0.5 0.5 -0.5
v -0.5 0.6 -0.5
v -0.5 0.7 -0.5
v -0.5 1 -0.5
v -0.4 0.2 -0.5
v -0.4 0.3 -0.5
v -0.4 0.5 -0.5
v -0.4 0.6 -0.5
v -0.4 0.7 -0.5
v -0.3 0.2 -0.5
v -0.3 0.3 -0.5
v -0.3 0.4 -0.5
v -0.3 0.5 -0.5
v -0.3 0.9 -0.5
v -0.3 1 -0.5
v -0.2 0.1 -0.5
v -0.2 0.2 -0.5
v -0.2 0.4 -0.5
v -0.2 0.5 -0.5
v -0.2 0.6 -0.5
v -0.2 0.7 -0.5
v -0.2 0.9 -0.5
v -0.2 1 -0.5
v -0.1 0.1 -0.5
v -0.1 0.2 -0.5
v -0.1 0.4 -0.5
v -0.1 0.5 -0.5
v -0.1 0.6 -0.5
v -0.1 0.7 -0.5
v 0 0.3 -0.5
v 0 0.4 -0.5
v 0 0.5 -0.5
v 0.1 0.3 -0.5
v 0.1 0.4 -0.5
v 0.2 0.5 -0.5
v 0.2 0.7 -0.5
v 0.2 0.8 -0.5
v 0.2 0.9 -0.5
v 0.3 0.5 -0.5
v 0.3 0.7 -0.5
v 0.3 0.8 -0.5
v 0.3 0.9 -0.5
v 0.4 0.3 -0.5
v 0.4 0.4 -0.5
v 0.5 0 -0.5
v 0.5 0.1 -0.5
v 0.5 0.3 -0.5
v 0.5 0.4 -0.5
v 0.5 0.7 -0.5
v 0.5 1 -0.5
v -0.5 0 0.5
v 0.5 0 0.5
v -0.5 0 -0.5
v 0.5 0 -0.5
v -0.5 1 0.5
v -0.3 1 0.5
v -0.2 1 0.5
v 0.5 1 0.5
v -0.1 1 0.4
v 0 1 0.4
v 0.3 1 0.4
v 0.4 1 0.4
v -0.3 1 0.3
v -0.2 1 0.3
v -0.1 1 0.3
v 0 1 0.3
v 0.2 1 0.3
v 0.3 1 0.3
v 0.4 1 0.3
v 0.2 1 0.2
v 0.3 1 0.2
v -0.5 1 0.1
v -0.4 1 0.1
v -0.3 1 0.1
v -0.5 1 0
v -0.4 1 0
v 0 1 0
v 0.1 1 0
v 0.3 1 0
v 0.4 1 0
v -0.4 1 -0.1
v -0.3 1 -0.1
v 0 1 -0.1
v 0.1 1 -0.1
v 0.3 1 -0.1
v 0.4 1 -0.1
v -0.1 1 -0.2
v 0 1 -0.2
v 0.2 1 -0.2
v 0.3 1 -0.2
v -0.3 1 -0.3
v -0.2 1 -0.3
v -0.1 1 -0.4
v 0 1 -0.4
v 0.2 1 -0.4
v 0.3 1 -0.4
v -0.5 1 -0.5
v -0.3 1 -0.5
v -0.2 1 -0.5
v 0.5 1 -0.5

# faces
f 3/2/1 2/2/1 1/2/1
f 4/2/1 2/2/1 3/2/1
f 5/2/1 2/2/1 4/2/1
f 6/2/1 2/2/1 5/2/1
f 7/1/1 4/1/1 3/1/1
f 7/2/1 5/2/1 4/2/1
f 8/1/1 6/1/1 5/1/1
f 8/2/1 5/2/1 7/2/1
f 9/1/1 6/1/1 8/1/1
f 10/1/1 6/1/1 9/1/1
f 11/1/1 7/1/1 3/1/1
f 11/1/1 8/1/1 7/1/1
f 11/1/1 9/1/1 8/1/1
f 12/1/1 9/1/1 11/1/1
f 13/1/1 9/1/1 12/1/1
f 14/1/1 9/1/1 13/1/1
f 15/2/1 10/2/1 9/2/1
f 15/1/1 9/1/1 14/1/1
f 16/1/1 6/1/1 10/1/1
f 16/2/1 10/2/1 15/2/1
f 17/1/1 11/1/1 3/1/1
f 17/2/1 12/2/1 11/2/1
f 18/1/1 13/1/1 12/1/1
f 18/2/1 12/2/1 17/2/1
f 19/2/1 14/2/1 13/2/1
f 19/1/1 13/1/1 18/1/1
f 20/1/1 15/1/1 14/1/1
f 20/2/1 14/2/1 19/2/1
f 20/1/1 16/1/1 15/1/1
f 21/1/1 19/1/1 18/1/1
f 21/1/1 16/1/1 20/1/1
f 21/1/1 20/1/1 19/1/1
f 21/1/1 18/1/1 17/1/1
f 21/1/1 6/1/1 16/1/1
f 22/1/1 6/1/1 21/1/1
f 23/1/1 21/1/1 17/1/1
f 24/1/1 21/1/1 23/1/1
f 25/1/1 21/1/1 24/1/1
f 26/1/1 21/1/1 25/1/1
f 27/4/1 22/4/1 21/4/1
f 27/1/1 21/1/1 26/1/1
f 28/4/1 22/4/1 27/4/1
f 29/1/1 17/1/1 3/1/1
f 29/1/1 23/1/1 17/1/1
f 30/1/1 23/1/1 29/1/1
f 31/4/1 24/4/1 23/4/1
f 31/1/1 23/1/1 30/1/1
f 32/1/1 25/1/1 24/1/1
f 32/4/1 24/4/1 31/4/1
f 33/4/1 26/4/1 25/4/1
f 33/1/1 25/1/1 32/1/1
f 34/1/1 27/1/1 26/1/1
f 34/4/1 26/4/1 33/4/1
f 35/3/1 28/3/1 27/3/1
f 35/1/1 27/1/1 34/1/1
f 36/3/1 28/3/1 35/3/1
f 37/3/1 30/3/1 29/3/1
f 38/4/1 32/4/1 31/4/1
f 38/3/1 30/3/1 37/3/1
f 38/4/1 34/4/1 33/4/1
f 38/4/1 36/4/1 35/4/1
f 38/4/1 35/4/1 34/4/1
f 38/4/1 31/4/1 30/4/1
f 38/4/1 33/4/1 32/4/1
f 39/4/1 36/4/1 38/4/1
f 40/4/1 36/4/1 39/4/1
f 41/4/1 36/4/1 40/4/1
f 42/4/1 36/4/1 41/4/1
f 43/4/1 36/4/1 42/4/1
f 44/4/1 36/4/1 43/4/1
f 45/4/1 38/4/1 37/4/1
f 45/4/1 39/4/1 38/4/1
f 45/3/1 40/3/1 39/3/1
f 46/4/1 41/4/1 40/4/1
f 46/3/1 40/3/1 45/3/1
f 47/4/1 41/4/1 46/4/1
f 48/3/1 42/3/1 41/3/1
f 48/4/1 41/4/1 47/4/1
f 49/4/1 43/4/1 42/4/1
f 49/3/1 42/3/1 48/3/1
f 50/3/1 44/3/1 43/3/1
f 50/4/1 43/4/1 49/4/1
f 51/4/1 36/4/1 44/4/1
f 51/3/1 44/3/1 50/3/1
f 52/4/1 45/4/1 37/4/1
f 52/4/1 46/4/1 45/4/1
f 53/6/1 47/6/1 46/6/1
f 53/4/1 46/4/1 52/4/1
f 54/4/1 50/4/1 49/4/1
f 54/6/1 47/6/1 53/6/1
f 54/4/1 49/4/1 48/4/1
f 54/4/1 51/4/1 50/4/1
f 54/4/1 48/4/1 47/4/1
f 55/4/1 36/4/1 51/4/1
f 55/4/1 51/4/1 54/4/1
f 56/2/2 57/2/2 58/2/2
f 58/2/2 57/2/2 59/2/2
f 58/1/2 59/1/2 60/1/2
f 60/1/2 59/1/2 61/1/2
f 58/1/2 60/1/2 62/1/2
f 62/1/2 60/1/2 63/1/2
f 60/2/2 61/2/2 64/2/2
f 63/1/2 60/1/2 64/1/2
f 61/1/2 59/1/2 65/1/2
f 64/2/2 61/2/2 65/2/2
f 65/1/2 59/1/2 66/1/2
f 66/1/2 59/1/2 67/1/2
f 58/1/2 62/1/2 68/1/2
f 62/2/2 63/2/2 69/2/2
f 68/1/2 62/1/2 69/1/2
f 63/1/2 64/1/2 70/1/2
f 69/2/2 63/2/2 70/2/2
f 64/1/2 65/1/2 70/1/2
f 65/1/2 66/1/2 70/1/2
f 70/1/2 66/1/2 71/1/2
f 71/1/2 66/1/2 72/1/2
f 66/2/2 67/2/2 73/2/2
f 72/1/2 66/1/2 73/1/2
f 73/2/2 67/2/2 74/2/2
f 68/2/2 69/2/2 75/2/2
f 69/1/2 70/1/2 76/1/2
f 75/2/2 69/2/2 76/2/2
f 70/1/2 71/1/2 76/1/2
f 76/1/2 71/1/2 77/1/2
f 71/2/2 72/2/2 78/2/2
f 77/1/2 71/1/2 78/1/2
f 73/1/2 74/1/2 79/1/2
f 78/2/2 72/2/2 79/2/2
f 72/1/2 73/1/2 79/1/2
f 79/1/2 74/1/2 80/1/2
f 80/1/2 74/1/2 81/1/2
f 80/4/2 81/4/2 82/4/2
f 81/1/2 74/1/2 82/1/2
f 82/1/2 74/1/2 83/1/2
f 83/1/2 74/1/2 84/1/2
f 84/1/2 74/1/2 85/1/2
f 76/1/2 77/1/2 86/1/2
f 75/1/2 76/1/2 86/1/2
f 77/4/2 78/4/2 87/4/2
f 86/1/2 77/1/2 87/1/2
f 78/1/2 79/1/2 88/1/2
f 87/4/2 78/4/2 88/4/2
f 79/1/2 80/1/2 88/1/2
f 88/1/2 80/1/2 89/1/2
f 80/4/2 82/4/2 90/4/2
f 89/1/2 80/1/2 90/1/2
f 82/4/2 83/4/2 90/4/2
f 90/4/2 83/4/2 91/4/2
f 83/1/2 84/1/2 92/1/2
f 91/4/2 83/4/2 92/4/2
f 84/4/2 85/4/2 93/4/2
f 92/1/2 84/1/2 93/1/2
f 85/1/2 74/1/2 94/1/2
f 93/4/2 85/4/2 94/4/2
f 94/1/2 74/1/2 95/1/2
f 86/4/2 87/4/2 96/4/2
f 87/4/2 88/4/2 96/4/2
f 96/4/2 88/4/2 97/4/2
f 88/3/2 89/3/2 98/3/2
f 97/4/2 88/4/2 98/4/2
f 90/4/2 91/4/2 99/4/2
f 98/3/2 89/3/2 99/3/2
f 89/4/2 90/4/2 99/4/2
f 91/3/2 92/3/2 100/3/2
f 99/4/2 91/4/2 100/4/2
f 92/4/2 93/4/2 101/4/2
f 100/3/2 92/3/2 101/3/2
f 94/4/2 95/4/2 101/4/2
f 93/4/2 94/4/2 101/4/2
f 96/6/2 97/6/2 102/6/2
f 86/4/2 96/4/2 102/4/2
f 99/4/2 100/4/2 103/4/2
f 102/6/2 97/6/2 103/6/2
f 98/4/2 99/4/2 103/4/2
f 100/4/2 101/4/2 103/4/2
f 97/4/2 98/4/2 103/4/2
f 86/4/2 102/4/2 104/4/2
f 102/4/2 103/4/2 104/4/2
f 103/4/2 101/4/2 105/4/2
f 104/4/2 103/4/2 105/4/2
f 101/4/2 95/4/2 105/4/2
f 111/1/3 108/1/3 107/1/3
f 112/1/3 108/1/3 111/1/3
f 113/1/3 108/1/3 112/1/3
f 114/3/3 109/3/3 108/3/3
f 114/1/3 108/1/3 113/1/3
f 115/4/3 110/4/3 109/4/3
f 115/3/3 109/3/3 114/3/3
f 116/1/3 111/1/3 107/1/3
f 116/2/3 112/2/3 111/2/3
f 117/1/3 113/1/3 112/1/3
f 117/2/3 112/2/3 116/2/3
f 118/4/3 114/4/3 113/4/3
f 118/1/3 113/1/3 117/1/3
f 118/4/3 115/4/3 114/4/3
f 119/4/3 115/4/3 118/4/3
f 120/4/3 110/4/3 115/4/3
f 120/4/3 115/4/3 119/4/3
f 121/4/3 110/4/3 120/4/3
f 122/1/3 117/1/3 116/1/3
f 122/1/3 119/1/3 118/1/3
f 122/1/3 118/1/3 117/1/3
f 123/1/3 119/1/3 122/1/3
f 124/1/3 119/1/3 123/1/3
f 125/4/3 120/4/3 119/4/3
f 125/1/3 119/1/3 124/1/3
f 126/6/3 121/6/3 120/6/3
f 126/4/3 120/4/3 125/4/3
f 127/6/3 121/6/3 126/6/3
f 128/1/3 116/1/3 107/1/3
f 128/1/3 122/1/3 116/1/3
f 129/1/3 122/1/3 128/1/3
f 130/2/3 123/2/3 122/2/3
f 130/1/3 122/1/3 129/1/3
f 131/1/3 124/1/3 123/1/3
f 131/2/3 123/2/3 130/2/3
f 132/4/3 125/4/3 124/4/3
f 132/1/3 124/1/3 131/1/3
f 132/4/3 127/4/3 126/4/3
f 132/4/3 126/4/3 125/4/3
f 133/4/3 127/4/3 132/4/3
f 134/4/3 127/4/3 133/4/3
f 135/1/3 128/1/3 107/1/3
f 135/2/3 129/2/3 128/2/3
f 136/1/3 131/1/3 130/1/3
f 136/2/3 129/2/3 135/2/3
f 136/1/3 130/1/3 129/1/3
f 136/1/3 133/1/3 132/1/3
f 136/1/3 132/1/3 131/1/3
f 137/3/3 134/3/3 133/3/3
f 137/1/3 133/1/3 136/1/3
f 138/4/3 127/4/3 134/4/3
f 138/3/3 134/3/3 137/3/3
f 139/4/3 127/4/3 138/4/3
f 140/4/3 138/4/3 137/4/3
f 140/6/3 139/6/3 138/6/3
f 141/4/3 127/4/3 139/4/3
f 141/6/3 139/6/3 140/6/3
f 142/1/3 135/1/3 107/1/3
f 142/1/3 136/1/3 135/1/3
f 142/1/3 137/1/3 136/1/3
f 143/1/3 137/1/3 142/1/3
f 144/1/3 137/1/3 143/1/3
f 145/4/3 141/4/3 140/4/3
f 145/1/3 137/1/3 144/1/3
f 145/4/3 140/4/3 137/4/3
f 146/1/3 144/1/3 143/1/3
f 147/4/3 145/4/3 144/4/3
f 147/1/3 144/1/3 146/1/3
f 148/4/3 141/4/3 145/4/3
f 148/4/3 145/4/3 147/4/3
f 149/4/3 127/4/3 141/4/3
f 149/4/3 141/4/3 148/4/3
f 150/2/3 143/2/3 142/2/3
f 150/1/3 142/1/3 107/1/3
f 151/1/3 146/1/3 143/1/3
f 151/2/3 143/2/3 150/2/3
f 152/1/3 146/1/3 151/1/3
f 153/4/3 148/4/3 147/4/3
f 153/1/3 146/1/3 152/1/3
f 153/4/3 147/4/3 146/4/3
f 154/3/3 149/3/3 148/3/3
f 154/4/3 148/4/3 153/4/3
f 155/4/3 127/4/3 149/4/3
f 155/3/3 149/3/3 154/3/3
f 156/2/3 107/2/3 106/2/3
f 157/1/3 152/1/3 151/1/3
f 157/2/3 107/2/3 156/2/3
f 157/1/3 151/1/3 150/1/3
f 157/1/3 150/1/3 107/1/3
f 158/2/3 153/2/3 152/2/3
f 158/1/3 152/1/3 157/1/3
f 159/1/3 154/1/3 153/1/3
f 159/2/3 153/2/3 158/2/3
f 160/4/3 155/4/3 154/4/3
f 160/1/3 154/1/3 159/1/3
f 161/4/3 127/4/3 155/4/3
f 161/4/3 155/4/3 160/4/3
f 163/1/4 164/1/4 168/1/4
f 168/1/4 164/1/4 169/1/4
f 164/4/4 165/4/4 170/4/4
f 169/1/4 164/1/4 170/1/4
f 165/3/4 166/3/4 171/3/4
f 170/4/4 165/4/4 171/4/4
f 166/4/4 167/4/4 172/4/4
f 171/3/4 166/3/4 172/3/4
f 168/2/4 169/2/4 173/2/4
f 163/1/4 168/1/4 173/1/4
f 170/1/4 171/1/4 174/1/4
f 173/2/4 169/2/4 174/2/4
f 169/1/4 170/1/4 174/1/4
f 171/1/4 172/1/4 174/1/4
f 174/1/4 172/1/4 175/1/4
f 175/1/4 172/1/4 176/1/4
f 172/4/4 167/4/4 177/4/4
f 177/4/4 167/4/4 178/4/4
f 162/2/4 163/2/4 179/2/4
f 163/1/4 173/1/4 179/1/4
f 173/1/4 174/1/4 179/1/4
f 174/1/4 175/1/4 179/1/4
f 179/1/4 175/1/4 180/1/4
f 175/2/4 176/2/4 181/2/4
f 180/1/4 175/1/4 181/1/4
f 176/1/4 172/1/4 182/1/4
f 181/2/4 176/2/4 182/2/4
f 182/1/4 172/1/4 183/1/4
f 172/4/4 177/4/4 184/4/4
f 183/1/4 172/1/4 184/1/4
f 177/5/4 178/5/4 185/5/4
f 184/4/4 177/4/4 185/4/4
f 185/5/4 178/5/4 186/5/4
f 179/2/4 180/2/4 187/2/4
f 162/2/4 179/2/4 187/2/4
f 180/1/4 181/1/4 188/1/4
f 187/2/4 180/2/4 188/2/4
f 182/1/4 183/1/4 188/1/4
f 181/1/4 182/1/4 188/1/4
f 188/1/4 183/1/4 189/1/4
f 189/1/4 183/1/4 190/1/4
f 183/4/4 184/4/4 191/4/4
f 190/1/4 183/1/4 191/1/4
f 184/4/4 185/4/4 191/4/4
f 185/4/4 186/4/4 191/4/4
f 191/4/4 186/4/4 192/4/4
f 188/1/4 189/1/4 193/1/4
f 187/1/4 188/1/4 193/1/4
f 189/2/4 190/2/4 194/2/4
f 193/1/4 189/1/4 194/1/4
f 191/1/4 192/1/4 195/1/4
f 194/2/4 190/2/4 195/2/4
f 190/1/4 191/1/4 195/1/4
f 187/1/4 193/1/4 196/1/4
f 193/2/4 194/2/4 196/2/4
f 194/1/4 195/1/4 197/1/4
f 196/2/4 194/2/4 197/2/4
f 195/1/4 192/1/4 198/1/4
f 197/1/4 195/1/4 198/1/4
f 196/1/4 197/1/4 198/1/4
f 192/4/4 186/4/4 199/4/4
f 198/1/4 192/1/4 199/1/4
f 199/4/4 186/4/4 200/4/4
f 200/4/4 186/4/4 201/4/4
f 196/1/4 198/1/4 202/1/4
f 198/4/4 199/4/4 202/4/4
f 199/4/4 200/4/4 202/4/4
f 202/4/4 200/4/4 203/4/4
f 200/6/4 201/6/4 204/6/4
f 203/4/4 200/4/4 204/4/4
f 201/4/4 186/4/4 205/4/4
f 204/6/4 201/6/4 205/6/4
f 187/1/4 196/1/4 206/1/4
f 202/1/4 203/1/4 206/1/4
f 196/1/4 202/1/4 206/1/4
f 206/1/4 203/1/4 207/1/4
f 162/2/4 187/2/4 208/2/4
f 187/1/4 206/1/4 209/1/4
f 208/2/4 187/2/4 209/2/4
f 206/2/4 207/2/4 210/2/4
f 209/1/4 206/1/4 210/1/4
f 207/1/4 203/1/4 211/1/4
f 210/2/4 207/2/4 211/2/4
f 203/4/4 204/4/4 212/4/4
f 211/1/4 203/1/4 212/1/4
f 204/4/4 205/4/4 212/4/4
f 205/4/4 186/4/4 213/4/4
f 212/4/4 205/4/4 213/4/4
f 216/2/5 215/2/5 214/2/5
f 217/2/5 215/2/5 216/2/5
f 220/4/6 221/4/6 222/4/6
f 222/4/6 221/4/6 223/4/6
f 223/4/6 221/4/6 224/4/6
f 224/4/6 221/4/6 225/4/6
f 218/4/6 219/4/6 226/4/6
f 219/6/6 220/6/6 226/6/6
f 220/4/6 222/4/6 227/4/6
f 226/6/6 220/6/6 227/6/6
f 222/5/6 223/5/6 228/5/6
f 227/4/6 222/4/6 228/4/6
f 223/4/6 224/4/6 229/4/6
f 228/5/6 223/5/6 229/5/6
f 229/4/6 224/4/6 230/4/6
f 224/5/6 225/5/6 231/5/6
f 230/4/6 224/4/6 231/4/6
f 225/4/6 221/4/6 232/4/6
f 231/5/6 225/5/6 232/5/6
f 230/6/6 231/6/6 233/6/6
f 229/4/6 230/4/6 233/4/6
f 226/4/6 227/4/6 233/4/6
f 228/4/6 229/4/6 233/4/6
f 227/4/6 228/4/6 233/4/6
f 231/4/6 232/4/6 234/4/6
f 233/6/6 231/6/6 234/6/6
f 226/4/6 233/4/6 235/4/6
f 218/4/6 226/4/6 235/4/6
f 233/4/6 234/4/6 235/4/6
f 235/4/6 234/4/6 236/4/6
f 236/4/6 234/4/6 237/4/6
f 235/6/6 236/6/6 238/6/6
f 236/5/6 237/5/6 239/5/6
f 238/6/6 236/6/6 239/6/6
f 237/4/6 234/4/6 240/4/6
f 240/4/6 234/4/6 241/4/6
f 234/4/6 232/4/6 242/4/6
f 241/4/6 234/4/6 242/4/6
f 232/4/6 221/4/6 243/4/6
f 242/4/6 232/4/6 243/4/6
f 239/5/6 237/5/6 244/5/6
f 238/4/6 239/4/6 244/4/6
f 237/4/6 240/4/6 245/4/6
f 244/5/6 237/5/6 245/5/6
f 240/6/6 241/6/6 246/6/6
f 245/4/6 240/4/6 246/4/6
f 241/4/6 242/4/6 247/4/6
f 246/6/6 241/6/6 247/6/6
f 242/5/6 243/5/6 248/5/6
f 247/4/6 242/4/6 248/4/6
f 243/4/6 221/4/6 249/4/6
f 248/5/6 243/5/6 249/5/6
f 245/4/6 246/4/6 250/4/6
f 244/4/6 245/4/6 250/4/6
f 248/4/6 249/4/6 250/4/6
f 247/4/6 248/4/6 250/4/6
f 246/4/6 247/4/6 250/4/6
f 250/4/6 249/4/6 251/4/6
f 251/4/6 249/4/6 252/4/6
f 252/4/6 249/4/6 253/4/6
f 244/4/6 250/4/6 254/4/6
f 254/4/6 250/4/6 255/4/6
f 250/6/6 251/6/6 256/6/6
f 255/4/6 250/4/6 256/4/6
f 251/4/6 252/4/6 257/4/6
f 256/6/6 251/6/6 257/6/6
f 252/5/6 253/5/6 258/5/6
f 257/4/6 252/4/6 258/4/6
f 253/4/6 249/4/6 259/4/6
f 258/5/6 253/5/6 259/5/6
f 238/4/6 244/4/6 260/4/6
f 244/4/6 254/4/6 260/4/6
f 254/5/6 255/5/6 261/5/6
f 260/4/6 254/4/6 261/4/6
f 257/4/6 258/4/6 262/4/6
f 261/5/6 255/5/6 262/5/6
f 255/4/6 256/4/6 262/4/6
f 258/4/6 259/4/6 262/4/6
f 256/4/6 257/4/6 262/4/6
f 249/4/6 221/4/6 263/4/6
f 262/4/6 259/4/6 263/4/6
f 259/4/6 249/4/6 263/4/6
